<svg width="40" height="40" viewBox="0 0 40 40"  fill="#FF4B55" xmlns="http://www.w3.org/2000/svg">
  <path d="M20 40C25.3043 40 30.3914 37.8929 34.1421 34.1421C37.8929 30.3914 40 25.3043 40 20C40 14.6957 37.8929 9.60859 34.1421 5.85786C30.3914 2.10714 25.3043 0 20 0C14.6957 0 9.60859 2.10714 5.85786 5.85786C2.10714 9.60859 0 14.6957 0 20C0 25.3043 2.10714 30.3914 5.85786 34.1421C9.60859 37.8929 14.6957 40 20 40V40Z"/>
  <path d="M20 35C23.9782 35 27.7936 33.4196 30.6066 30.6066C33.4196 27.7936 35 23.9782 35 20C35 16.0218 33.4196 12.2064 30.6066 9.3934C27.7936 6.58035 23.9782 5 20 5C16.0218 5 12.2064 6.58035 9.3934 9.3934C6.58035 12.2064 5 16.0218 5 20C5 23.9782 6.58035 27.7936 9.3934 30.6066C12.2064 33.4196 16.0218 35 20 35V35Z" fill="white" fill-opacity="0.7"/>
  <path d="M20 7.01C19.7733 7.01 19.5488 7.05481 19.3395 7.14188C19.1301 7.22894 18.9401 7.35653 18.7802 7.51731C18.6204 7.67808 18.4939 7.86888 18.408 8.07871C18.3222 8.28855 18.2787 8.51329 18.28 8.74C18.2819 9.0929 18.3923 9.43667 18.5962 9.72468C18.8002 10.0127 19.0878 10.231 19.42 10.35V13.1C19.1367 13.1644 18.8663 13.2759 18.62 13.43L16.54 11.33C16.6462 11.1013 16.7008 10.8521 16.7 10.6C16.7 10.1438 16.5188 9.70634 16.1962 9.38378C15.8737 9.06121 15.4362 8.88 14.98 8.88C14.5238 8.88 14.0863 9.06121 13.7638 9.38378C13.4412 9.70634 13.26 10.1438 13.26 10.6C13.26 11.0562 13.4412 11.4937 13.7638 11.8162C14.0863 12.1388 14.5238 12.32 14.98 12.32C15.2355 12.3223 15.4883 12.2676 15.72 12.16L17.81 14.25C17.551 14.6602 17.4124 15.1349 17.41 15.62C17.4131 16.2103 17.6177 16.7819 17.99 17.24L16.36 20.05C15.8992 19.8846 15.4011 19.8532 14.9232 19.9594C14.4453 20.0656 14.0073 20.3051 13.66 20.65C13.3158 20.9965 13.0766 21.4333 12.97 21.91H10.02C9.93568 21.6697 9.79906 21.4511 9.61999 21.27C9.3008 20.9528 8.87 20.7733 8.41999 20.77C8.19039 20.7663 7.96238 20.8087 7.74942 20.8946C7.53645 20.9805 7.34284 21.1081 7.17999 21.27C7.01914 21.4299 6.89148 21.6199 6.80438 21.8293C6.71727 22.0387 6.67242 22.2632 6.67242 22.49C6.67242 22.7168 6.71727 22.9413 6.80438 23.1507C6.89148 23.3601 7.01914 23.5501 7.17999 23.71C7.33984 23.8709 7.52993 23.9985 7.7393 24.0856C7.94868 24.1727 8.17321 24.2176 8.39999 24.2176C8.62676 24.2176 8.8513 24.1727 9.06067 24.0856C9.27005 23.9985 9.46013 23.8709 9.61999 23.71C9.79906 23.5289 9.93568 23.3103 10.02 23.07H12.97C13.0354 23.3498 13.1469 23.6168 13.3 23.86L11.36 25.8C11.04 25.6559 10.6836 25.6132 10.3386 25.6776C9.99359 25.7419 9.67655 25.9103 9.42999 26.16C9.10817 26.4825 8.92743 26.9194 8.92743 27.375C8.92743 27.8306 9.10817 28.2675 9.42999 28.59C9.58984 28.7509 9.77993 28.8785 9.9893 28.9656C10.1987 29.0527 10.4232 29.0976 10.65 29.0976C10.8768 29.0976 11.1013 29.0527 11.3107 28.9656C11.5201 28.8785 11.7101 28.7509 11.87 28.59C12.1237 28.3349 12.2911 28.0067 12.3485 27.6515C12.4059 27.2963 12.3504 26.932 12.19 26.61L14.12 24.68C14.3608 24.8286 14.6243 24.9367 14.9 25V27.97C14.6632 28.0556 14.4482 28.1922 14.27 28.37C13.9482 28.6925 13.7674 29.1294 13.7674 29.585C13.7674 30.0406 13.9482 30.4775 14.27 30.8C14.5925 31.1218 15.0294 31.3026 15.485 31.3026C15.9406 31.3026 16.3775 31.1218 16.7 30.8C17.0218 30.4775 17.2025 30.0406 17.2025 29.585C17.2025 29.1294 17.0218 28.6925 16.7 28.37C16.5189 28.1909 16.3003 28.0543 16.06 27.97V25C16.5378 24.8906 16.9747 24.6479 17.32 24.3C17.6479 23.9744 17.8826 23.567 18 23.12H22C22.114 23.5741 22.349 23.9888 22.68 24.32C23.025 24.6589 23.458 24.8945 23.93 25V27.95C23.6897 28.0343 23.4711 28.1709 23.29 28.35C23.1291 28.5099 23.0015 28.6999 22.9144 28.9093C22.8273 29.1187 22.7824 29.3432 22.7824 29.57C22.7824 29.7968 22.8273 30.0213 22.9144 30.2307C23.0015 30.4401 23.1291 30.6301 23.29 30.79C23.6125 31.1118 24.0494 31.2926 24.505 31.2926C24.9606 31.2926 25.3975 31.1118 25.72 30.79C25.8808 30.6301 26.0085 30.4401 26.0956 30.2307C26.1827 30.0213 26.2276 29.7968 26.2276 29.57C26.2276 29.3432 26.1827 29.1187 26.0956 28.9093C26.0085 28.6999 25.8808 28.5099 25.72 28.35C25.5418 28.1722 25.3267 28.0356 25.09 27.95V25.01C25.3698 24.9446 25.6368 24.8331 25.88 24.68L27.82 26.61C27.6654 26.9307 27.6141 27.2914 27.6732 27.6425C27.7323 27.9936 27.8989 28.3176 28.15 28.57C28.3098 28.7309 28.4999 28.8585 28.7093 28.9456C28.9187 29.0327 29.1432 29.0776 29.37 29.0776C29.5968 29.0776 29.8213 29.0327 30.0307 28.9456C30.2401 28.8585 30.4301 28.7309 30.59 28.57C30.7508 28.4101 30.8785 28.2201 30.9656 28.0107C31.0527 27.8013 31.0976 27.5768 31.0976 27.35C31.0976 27.1232 31.0527 26.8987 30.9656 26.6893C30.8785 26.4799 30.7508 26.2899 30.59 26.13C30.3395 25.8794 30.0178 25.7122 29.6688 25.6514C29.3198 25.5905 28.9605 25.6389 28.64 25.79L26.7 23.86C26.8551 23.6107 26.9667 23.3368 27.03 23.05H29.98C30.0643 23.2903 30.2009 23.5089 30.38 23.69C30.5398 23.8509 30.7299 23.9785 30.9393 24.0656C31.1487 24.1527 31.3732 24.1976 31.6 24.1976C31.8268 24.1976 32.0513 24.1527 32.2607 24.0656C32.47 23.9785 32.6601 23.8509 32.82 23.69C32.9808 23.5301 33.1085 23.3401 33.1956 23.1307C33.2827 22.9213 33.3276 22.6968 33.3276 22.47C33.3276 22.2432 33.2827 22.0187 33.1956 21.8093C33.1085 21.5999 32.9808 21.4099 32.82 21.25C32.5008 20.9328 32.07 20.7533 31.62 20.75C31.3904 20.7463 31.1624 20.7887 30.9494 20.8746C30.7365 20.9605 30.5428 21.0881 30.38 21.25C30.2009 21.4311 30.0643 21.6497 29.98 21.89H27.02C26.9127 21.4216 26.6773 20.9922 26.34 20.65C25.9909 20.3013 25.5494 20.0595 25.0675 19.9532C24.5856 19.8469 24.0834 19.8805 23.62 20.05L22 17.27C22.3802 16.8079 22.5887 16.2284 22.59 15.63C22.5914 15.1381 22.4526 14.6559 22.19 14.24L24.27 12.15C24.4979 12.2596 24.7471 12.3177 25 12.32C25.4562 12.32 25.8936 12.1388 26.2162 11.8162C26.5388 11.4937 26.72 11.0562 26.72 10.6C26.7213 10.3733 26.6778 10.1485 26.5919 9.93871C26.5061 9.72888 26.3796 9.53808 26.2198 9.37731C26.0599 9.21653 25.8699 9.08894 25.6605 9.00188C25.4512 8.91481 25.2267 8.87 25 8.87C24.5438 8.87 24.1063 9.05121 23.7838 9.37378C23.4612 9.69634 23.28 10.1338 23.28 10.59C23.2823 10.8429 23.3403 11.0921 23.45 11.32L21.35 13.42C21.1123 13.2724 20.8523 13.1644 20.58 13.1V10.35C20.9122 10.231 21.1998 10.0127 21.4037 9.72468C21.6077 9.43667 21.7181 9.0929 21.72 8.74C21.7226 8.51245 21.6801 8.28663 21.5948 8.07564C21.5096 7.86465 21.3833 7.67267 21.2233 7.51083C21.0634 7.34899 20.8729 7.2205 20.6629 7.13281C20.4529 7.04513 20.2276 6.99998 20 7V7.01ZM20 7.78C20.2529 7.78263 20.4945 7.88494 20.6724 8.06469C20.8502 8.24444 20.95 8.48712 20.95 8.74C20.9474 8.99115 20.8465 9.23128 20.6689 9.40887C20.4913 9.58647 20.2511 9.6874 20 9.69C19.7471 9.69001 19.5044 9.59024 19.3247 9.41237C19.1449 9.23449 19.0426 8.99287 19.04 8.74C19.04 8.48539 19.1411 8.24121 19.3212 8.06118C19.5012 7.88114 19.7454 7.78 20 7.78ZM25 9.63C25.2546 9.63 25.4988 9.73114 25.6788 9.91118C25.8588 10.0912 25.96 10.3354 25.96 10.59C25.9574 10.8429 25.8551 11.0845 25.6753 11.2624C25.4956 11.4402 25.2529 11.54 25 11.54C24.7488 11.5374 24.5087 11.4365 24.3311 11.2589C24.1535 11.0813 24.0526 10.8411 24.05 10.59C24.05 10.3371 24.1497 10.0944 24.3276 9.91469C24.5055 9.73494 24.7471 9.63263 25 9.63ZM14.98 9.65C15.2329 9.64999 15.4755 9.74975 15.6553 9.92763C15.8351 10.1055 15.9374 10.3471 15.94 10.6C15.94 10.8546 15.8388 11.0988 15.6588 11.2788C15.4788 11.4589 15.2346 11.56 14.98 11.56C14.7271 11.5574 14.4855 11.4551 14.3076 11.2753C14.1297 11.0956 14.03 10.8529 14.03 10.6C14.0326 10.3489 14.1335 10.1087 14.3111 9.93113C14.4887 9.75353 14.7288 9.6526 14.98 9.65ZM20 13.8C20.2385 13.8 20.4747 13.8471 20.695 13.9387C20.9152 14.0303 21.1152 14.1645 21.2834 14.3337C21.4516 14.5028 21.5847 14.7035 21.6751 14.9243C21.7655 15.145 21.8113 15.3815 21.81 15.62C21.8073 16.0983 21.6155 16.5561 21.2763 16.8934C20.9372 17.2307 20.4783 17.42 20 17.42C19.5217 17.42 19.0628 17.2307 18.7236 16.8934C18.3845 16.5561 18.1926 16.0983 18.19 15.62C18.1887 15.3823 18.2342 15.1467 18.3239 14.9266C18.4137 14.7065 18.5459 14.5062 18.713 14.3372C18.8802 14.1682 19.079 14.0338 19.2981 13.9416C19.5172 13.8494 19.7523 13.8013 19.99 13.8H20ZM18.91 17.96C19.2516 18.1183 19.6235 18.2002 20 18.2C20.369 18.2004 20.7338 18.122 21.07 17.97L22.65 20.7C22.3114 21.0517 22.0792 21.492 21.98 21.97H18.03C17.9287 21.4826 17.6892 21.0348 17.34 20.68L18.91 17.96ZM15.51 20.68C15.9831 20.6852 16.4354 20.8754 16.77 21.21C16.9381 21.3781 17.0715 21.5776 17.1624 21.7973C17.2534 22.0169 17.3003 22.2523 17.3003 22.49C17.3003 22.7277 17.2534 22.9631 17.1624 23.1827C17.0715 23.4024 16.9381 23.6019 16.77 23.77C16.6019 23.9381 16.4024 24.0715 16.1827 24.1625C15.9631 24.2534 15.7277 24.3003 15.49 24.3003C15.2523 24.3003 15.0169 24.2534 14.7972 24.1625C14.5776 24.0715 14.3781 23.9381 14.21 23.77C14.0419 23.6019 13.9085 23.4024 13.8175 23.1827C13.7265 22.9631 13.6797 22.7277 13.6797 22.49C13.6797 22.2523 13.7265 22.0169 13.8175 21.7973C13.9085 21.5776 14.0419 21.3781 14.21 21.21C14.3805 21.0395 14.5833 20.9048 14.8065 20.8138C15.0298 20.7228 15.2689 20.6773 15.51 20.68ZM24.53 20.68C25.0031 20.6852 25.4554 20.8754 25.79 21.21C25.9596 21.3783 26.0942 21.5784 26.1861 21.799C26.278 22.0195 26.3253 22.2561 26.3253 22.495C26.3253 22.7339 26.278 22.9705 26.1861 23.191C26.0942 23.4116 25.9596 23.6117 25.79 23.78C25.6219 23.9481 25.4224 24.0815 25.2027 24.1725C24.9831 24.2634 24.7477 24.3103 24.51 24.3103C24.2723 24.3103 24.0369 24.2634 23.8172 24.1725C23.5976 24.0815 23.3981 23.9481 23.23 23.78C23.0604 23.6117 22.9257 23.4116 22.8339 23.191C22.742 22.9705 22.6947 22.7339 22.6947 22.495C22.6947 22.2561 22.742 22.0195 22.8339 21.799C22.9257 21.5784 23.0604 21.3783 23.23 21.21C23.4005 21.0395 23.6033 20.9048 23.8265 20.8138C24.0498 20.7228 24.2889 20.6773 24.53 20.68ZM31.61 21.52C31.8614 21.522 32.1019 21.6225 32.28 21.8C32.4577 21.9797 32.5574 22.2223 32.5574 22.475C32.5574 22.7277 32.4577 22.9703 32.28 23.15C32.1908 23.2395 32.0848 23.3105 31.9681 23.359C31.8514 23.4074 31.7263 23.4324 31.6 23.4324C31.4736 23.4324 31.3485 23.4074 31.2318 23.359C31.1152 23.3105 31.0092 23.2395 30.92 23.15C30.7423 22.9703 30.6426 22.7277 30.6426 22.475C30.6426 22.2223 30.7423 21.9797 30.92 21.8C31.0117 21.7085 31.121 21.6365 31.2414 21.5884C31.3617 21.5403 31.4905 21.517 31.62 21.52H31.61ZM8.40999 21.53C8.65789 21.5346 8.8944 21.6349 9.06999 21.81C9.15949 21.8992 9.2305 22.0052 9.27895 22.1219C9.3274 22.2385 9.35235 22.3637 9.35235 22.49C9.35235 22.6163 9.3274 22.7415 9.27895 22.8581C9.2305 22.9748 9.15949 23.0808 9.06999 23.17C8.89027 23.3477 8.64773 23.4474 8.39499 23.4474C8.14225 23.4474 7.8997 23.3477 7.71999 23.17C7.63049 23.0808 7.55948 22.9748 7.51103 22.8581C7.46257 22.7415 7.43763 22.6163 7.43763 22.49C7.43763 22.3637 7.46257 22.2385 7.51103 22.1219C7.55948 22.0052 7.63049 21.8992 7.71999 21.81C7.81173 21.7185 7.92105 21.6465 8.04135 21.5984C8.16165 21.5503 8.29045 21.527 8.41999 21.53H8.40999ZM29.4 26.4C29.6479 26.4046 29.8844 26.5049 30.06 26.68C30.2377 26.8597 30.3374 27.1023 30.3374 27.355C30.3374 27.6077 30.2377 27.8503 30.06 28.03C29.8803 28.2077 29.6377 28.3074 29.385 28.3074C29.1322 28.3074 28.8897 28.2077 28.71 28.03C28.5323 27.8503 28.4326 27.6077 28.4326 27.355C28.4326 27.1023 28.5323 26.8597 28.71 26.68C28.8006 26.5897 28.9082 26.5185 29.0267 26.4704C29.1452 26.4223 29.2721 26.3984 29.4 26.4ZM10.67 26.42C10.9179 26.4246 11.1544 26.5249 11.33 26.7C11.5077 26.8797 11.6074 27.1223 11.6074 27.375C11.6074 27.6277 11.5077 27.8703 11.33 28.05C11.1503 28.2277 10.9077 28.3274 10.655 28.3274C10.4022 28.3274 10.1597 28.2277 9.97999 28.05C9.80228 27.8703 9.70261 27.6277 9.70261 27.375C9.70261 27.1223 9.80228 26.8797 9.97999 26.7C10.0717 26.6085 10.181 26.5365 10.3014 26.4884C10.4217 26.4403 10.5505 26.417 10.68 26.42H10.67ZM24.53 28.62C24.7793 28.6273 25.016 28.7313 25.19 28.91C25.3677 29.0897 25.4674 29.3323 25.4674 29.585C25.4674 29.8377 25.3677 30.0803 25.19 30.26C25.0103 30.4377 24.7677 30.5374 24.515 30.5374C24.2622 30.5374 24.0197 30.4377 23.84 30.26C23.6623 30.0803 23.5626 29.8377 23.5626 29.585C23.5626 29.3323 23.6623 29.0897 23.84 28.91C23.9306 28.8197 24.0382 28.7485 24.1567 28.7004C24.2752 28.6523 24.4021 28.6284 24.53 28.63V28.62ZM15.51 28.63C15.7579 28.6346 15.9944 28.7349 16.17 28.91C16.3477 29.0897 16.4474 29.3323 16.4474 29.585C16.4474 29.8377 16.3477 30.0803 16.17 30.26C15.9903 30.4377 15.7477 30.5374 15.495 30.5374C15.2422 30.5374 14.9997 30.4377 14.82 30.26C14.6423 30.0803 14.5426 29.8377 14.5426 29.585C14.5426 29.3323 14.6423 29.0897 14.82 28.91C14.9106 28.8197 15.0182 28.7485 15.1367 28.7004C15.2552 28.6523 15.3821 28.6284 15.51 28.63Z"/>
</svg>
