<svg xmlns="http://www.w3.org/2000/svg" width="40" height="40" viewBox="0 0 10.583 10.583"><path d="M5.292 10.583A5.292 5.292 0 105.292 0a5.292 5.292 0 000 10.583z" fill="#fc9f00"/><path d="M5.292 9.26a3.969 3.969 0 100-7.937 3.969 3.969 0 000 7.937z" fill="#fff" fill-opacity=".7"/><path d="M4.513 4.209c.068-.457-.28-.703-.756-.867l.155-.619-.377-.094-.15.603c-.1-.025-.201-.048-.302-.071l.151-.607-.377-.094-.154.62-.24-.057V3.02l-.52-.13-.1.402s.28.064.273.068c.153.039.18.14.176.22l-.176.705.04.012-.04-.01-.247.989c-.019.046-.066.116-.173.09a6.214 6.214 0 01-.274-.07l-.187.432.491.123c.091.022.18.046.268.069l-.155.626.376.094.154-.62c.103.028.203.054.3.078l-.153.617.377.094.156-.625c.642.122 1.126.073 1.329-.509.164-.468-.008-.738-.346-.914.246-.056.431-.218.48-.553zm-.861 1.207c-.117.468-.905.215-1.16.152l.207-.83c.255.064 1.075.19.953.678zm.116-1.214c-.106.426-.762.21-.974.156l.187-.752c.213.053.898.152.787.596zM8.837 6.005l-1.399-2.28-1.4 2.28 1.4.812zm.001.26l-1.4.813-1.4-.812 1.4 1.937z" fill="#fc9f00" fill-rule="evenodd"/><path d="M6.753 1.229L3.83 9.598" fill="#fc9f00" stroke="#fc9f00" stroke-width=".95"/></svg>