<svg xmlns="http://www.w3.org/2000/svg" width="40" height="40" viewBox="0 0 10.583 10.583">
  <path d="M5.219 10.583A5.292 5.292 0 105.219 0a5.292 5.292 0 000 10.583z" fill="#ff0"/>
  <path d="M5.219 9.26a3.969 3.969 0 100-7.937 3.969 3.969 0 000 7.937z" fill="#fff" fill-opacity=".7"/>
  <path d="M5.257 3.475c.083-.554-.34-.853-.917-1.052l.187-.75-.457-.115-.183.732c-.12-.03-.243-.058-.366-.086l.184-.737-.457-.114-.188.751c-.1-.022-.197-.045-.292-.068v-.003l-.63-.157-.122.488a6 6 0 00.333.083c.185.046.218.169.213.266l-.214.856a.36.36 0 01.048.015l-.05-.012-.298 1.2c-.022.055-.08.14-.21.108a8.47 8.47 0 01-.332-.083l-.227.523.596.149c.11.027.219.056.325.084l-.19.76.458.113.187-.751c.125.034.247.065.365.094l-.187.749.457.113.19-.758c.78.148 1.366.088 1.613-.617.199-.568-.01-.896-.42-1.11.299-.068.524-.265.584-.67zM4.21 4.94c-.14.569-1.097.261-1.407.184l.25-1.006c.31.077 1.305.23 1.157.822zm.142-1.473c-.13.517-.925.254-1.183.19l.228-.913c.258.064 1.09.184.955.723z" fill="#f2f200" fill-rule="evenodd"/>
  <path d="M6.75 8.408a1.381 1.381 0 00-.016-.21 6.312 6.312 0 00-.034-.184 10.237 10.237 0 01-.045-.254c-.037-.22-.064-.323-.114-.423a.566.566 0 00-.106-.152c-.082-.086-.171-.141-.39-.242a19.69 19.69 0 01-.355-.173c-.29-.145-.317-.156-.37-.149-.056.008-.114.043-.186.112a1.873 1.873 0 00-.257.323c-.122.175-.13.191-.133.251-.002.037-.001.04.013.065.016.027.035.041.176.127.144.088.228.134.52.286a72.147 72.147 0 01.574.305c.188.1.514.266.555.282a.94.94 0 00.146.046c.017.003.018.002.021-.01zm.532-.232l1.002-.569a355.167 355.167 0 011.48-.839c.02-.014.035-.035.035-.051a.371.371 0 00-.028-.064 10.98 10.98 0 01-.089-.19 3.75 3.75 0 00-.092-.189.971.971 0 00-.112-.161l-.016-.015-.902.394a4268.918 4268.918 0 01-1.771.773c-.002 0 0 .01.004.02.036.083.073.228.098.38l.106.665c0 .002.002.004.004.004s.129-.071.281-.158zm-.48-1.189c.576-.25 2.396-1.045 2.397-1.047l-.128-.066c-.38-.19-.596-.257-.832-.256a.882.882 0 00-.245.03c-.03.008-.326.105-.657.215-.642.213-.697.23-1.016.322-.395.112-.563.168-.725.241l-.02.009.234.117c.128.064.29.143.36.174.13.061.181.087.245.126.065.04.143.102.192.152l.047.048zm.423-3.408c.02-.01.03-.028.05-.093.018-.055.06-.217.072-.273.015-.076.03-.105.061-.124a.438.438 0 01.083-.024c.164-.036.337-.08.352-.089.024-.016.037-.065.024-.09-.014-.028-.03-.038-.09-.057a3.42 3.42 0 00-.294-.077 1.206 1.206 0 01-.08-.02c-.018-.006-.036-.031-.042-.059l-.015-.071a8.153 8.153 0 00-.061-.258.326.326 0 00-.034-.106c-.033-.038-.102-.036-.13.005a2.76 2.76 0 00-.088.342l-.013.06c-.008.045-.012.055-.028.072-.013.015-.022.018-.109.037a2.938 2.938 0 00-.228.058.53.53 0 00-.129.047.084.084 0 00-.025.057c0 .022.021.055.04.064.02.01.243.065.345.085.057.012.061.013.085.028.028.018.04.044.062.137.03.131.077.302.09.324.017.03.068.042.102.025zm.308 1.712c.032-.008.044-.028.072-.12.02-.072.048-.178.074-.293a.127.127 0 01.039-.072c.02-.017.03-.02.096-.035a4.409 4.409 0 00.253-.06.72.72 0 00.095-.027c.018-.01.033-.04.033-.064 0-.037-.02-.062-.062-.075a4.399 4.399 0 00-.363-.095c-.064-.013-.076-.025-.089-.086a4.796 4.796 0 00-.024-.109 4.037 4.037 0 00-.078-.302c-.012-.023-.033-.033-.07-.033-.028 0-.035.001-.048.012a.105.105 0 00-.022.026 5.954 5.954 0 00-.096.394c-.015.074-.028.085-.116.104a3.54 3.54 0 00-.312.08c-.058.018-.072.028-.085.059-.017.041.007.085.056.1.05.014.25.062.329.077.064.013.093.029.11.06.007.012.019.053.028.093a4.5 4.5 0 00.076.289c.013.04.026.061.044.07.015.009.042.011.06.007zm-1.225.5a.067.067 0 00.023-.019c.014-.021.068-.216.092-.33.019-.09.033-.102.157-.129.14-.03.277-.065.293-.075.02-.012.028-.03.028-.058 0-.024-.01-.043-.028-.055a2.557 2.557 0 00-.327-.091c-.057-.012-.084-.021-.093-.031-.01-.012-.017-.03-.028-.083a5.503 5.503 0 00-.053-.225c-.028-.115-.03-.123-.046-.138-.03-.029-.092-.023-.112.01-.01.016-.059.207-.084.326-.018.086-.02.095-.037.11-.014.013-.03.019-.098.033a3.49 3.49 0 00-.295.078.086.086 0 00-.033.02c-.027.028-.028.064-.003.093.015.016.02.018.102.038.096.025.195.048.25.059.057.011.087.034.1.074l.013.056c.02.097.07.28.084.308.016.033.06.046.095.029z" fill="#f2f200"/>
  <path d="M3.845 6.786a.154.154 0 01-.026-.045l-.59-1.368a2.118 2.118 0 00-.102-.224.245.245 0 00-.036.071c-.086.212-.296.73-.453 1.123l-.178.445h-.382c-.313 0-.384-.001-.391-.006a1.325 1.325 0 01-.075-.12.988.988 0 00-.072-.113.526.526 0 00-.064.114 2.39 2.39 0 01-.062.12 3.9 3.9 0 01-.3.005c-.247 0-.295 0-.295-.006 0-.01.02-.05.29-.616l.18-.377c.136-.283.18-.374.196-.393.008-.01.01-.01.016-.005.003.004.069.115.145.246.276.474.395.677.402.684.004.004.008.005.01.002a1018.93 1018.93 0 01.835-2.08c.109-.27.2-.494.205-.499.01-.012.017-.01.024.004l.14.32c.274.64.487 1.128.744 1.726a51.933 51.933 0 00.148.342l.104.25c.138.023.759.01.759.01l.78-2.89.014-.049.02-.07a.173.173 0 01.019-.053c.01-.008.866-.008.876 0a.4.4 0 01.036.108 8.683 8.683 0 00.046.157c.162.549.35 1.175.514 1.73.056.189.07.236.076.236a310.2 310.2 0 00.796-1.176.008.008 0 01.01-.002.416.416 0 01.03.066l.082.198.284.687c.328.793.404.976.409.977.006.002.034-.035.06-.08l.146-.26c.07-.127.134-.235.14-.24.009-.008.016-.01.023-.009.019.005.428.235.447.252.004.004.008.009.008.011a188.761 188.761 0 00-.377.67 2.19 2.19 0 01-.071.121c-.007.007-.033.008-.39.008-.303 0-.381 0-.386-.006-.003-.003-.082-.19-.174-.415-.268-.65-.344-.83-.35-.831a2 2 0 00-.133.187 300.115 300.115 0 01-.572.85c-.161.24-.142.215-.17.215-.011 0-.023-.003-.026-.006a1.144 1.144 0 01-.033-.103c-.252-.85-.524-1.774-.76-2.56a53.962 53.962 0 01-.082-.28c-.01-.036-.013-.04-.02-.04-.002 0-.007.005-.01.013a38.422 38.422 0 00-.098.365c-.226.856-.433 1.591-.65 2.406a5.098 5.098 0 01-.036.136c-.015.056-.02.065-.031.07a50.32 50.32 0 01-1.618-.003z" fill="#ff0"/>
</svg>