<svg xmlns="http://www.w3.org/2000/svg" width="40" height="40" viewBox="0 0 10.583 10.583"><path d="M5.292 10.583A5.292 5.292 0 105.292 0a5.292 5.292 0 000 10.583z" fill="#ffaae4"/><path d="M5.292 9.26a3.969 3.969 0 100-7.937 3.969 3.969 0 000 7.937z" fill="#fff" fill-opacity=".7"/><path d="M4.735 3.054a2.794 2.794 0 00-2.793 2.794 2.794 2.794 0 002.793 2.794A2.794 2.794 0 007.53 5.848H4.735z" fill="#ffaae4"/><path d="M5.175 1.942v3.467h3.467a3.467 3.467 0 00-3.467-3.467z" fill="#ffaae4"/><text transform="matrix(.94614 0 0 1.05693 -31.847 -39.94)" y="45.165" x="36.045" style="line-height:1.25;-inkscape-font-specification:Gordita" font-weight="400" font-size="2.829" font-family="Gordita" letter-spacing="0" word-spacing="0" fill="#fff" fill-opacity=".793" stroke-width=".071"><tspan style="-inkscape-font-specification:Gordita" y="45.165" x="36.045">10</tspan></text></svg>