<svg xmlns="http://www.w3.org/2000/svg" width="40" height="40" viewBox="0 0 10.583 10.583"><path d="M5.292 10.583A5.292 5.292 0 105.292 0a5.292 5.292 0 000 10.583z" fill="#8d0ef1"/><path d="M5.292 9.26a3.969 3.969 0 100-7.937 3.969 3.969 0 000 7.937z" fill="#fff" fill-opacity=".7"/><path d="M8.713 4.4c.143-.957-.585-1.471-1.581-1.815l.323-1.296-.789-.196-.315 1.262c-.207-.052-.42-.1-.632-.149l.317-1.27-.788-.197-.324 1.296c-.171-.04-.34-.078-.504-.119l.001-.004-1.088-.272-.21.843s.586.134.574.142c.32.08.377.292.367.46L3.696 4.56c.022.006.05.014.082.026l-.083-.02-.516 2.068c-.04.097-.138.242-.362.187.008.012-.573-.143-.573-.143l-.392.903 1.027.256.562.145-.326 1.311.788.196.323-1.296c.215.058.425.112.629.163l-.322 1.291.788.196.327-1.308c1.345.255 2.357.152 2.783-1.065.343-.98-.017-1.545-.725-1.913.516-.119.904-.458 1.007-1.158zM6.91 6.927c-.243.98-1.893.45-2.428.318l.434-1.737c.535.134 2.25.398 1.994 1.42zm.244-2.542c-.222.892-1.595.439-2.04.328l.393-1.575c.445.111 1.88.318 1.647 1.247z" fill="#8d0ef1" fill-opacity=".251" fill-rule="evenodd"/><path d="M3.918 6.786a.154.154 0 01-.026-.045l-.59-1.368a2.118 2.118 0 00-.102-.224.245.245 0 00-.036.071c-.086.212-.296.73-.453 1.123l-.178.445h-.382c-.313 0-.384-.001-.391-.006a1.325 1.325 0 01-.075-.12.988.988 0 00-.072-.113.526.526 0 00-.064.114 2.39 2.39 0 01-.062.12 3.9 3.9 0 01-.3.005c-.247 0-.295 0-.295-.006 0-.01.02-.05.29-.616l.18-.377c.136-.283.181-.374.196-.393.008-.01.01-.01.016-.005.003.004.069.115.145.246.276.474.395.677.402.684.004.004.008.005.01.002a1018.93 1018.93 0 01.835-2.08c.109-.27.2-.494.205-.499.01-.012.017-.01.024.004l.14.32c.274.64.487 1.128.744 1.726a51.933 51.933 0 00.148.342l.104.25c.138.023.759.01.759.01l.781-2.89.013-.049.02-.07a.173.173 0 01.019-.053c.011-.008.866-.008.876 0a.4.4 0 01.036.108 8.683 8.683 0 00.046.157c.162.549.35 1.175.514 1.73.056.189.07.236.076.236a310.2 310.2 0 00.796-1.176c.002-.003.007-.004.01-.002a.416.416 0 01.03.066l.082.198.284.687c.328.793.404.976.409.977.006.002.034-.035.06-.08l.146-.26c.07-.127.134-.235.14-.24.009-.008.016-.01.023-.009.019.005.428.235.447.252.004.004.008.009.008.011a188.761 188.761 0 00-.377.67 2.19 2.19 0 01-.071.121c-.007.007-.033.008-.389.008-.304 0-.382 0-.387-.006-.003-.003-.082-.19-.174-.415-.268-.65-.344-.83-.35-.831a2 2 0 00-.133.187 300.115 300.115 0 01-.572.85c-.161.24-.142.215-.169.215-.012 0-.024-.003-.027-.006a1.144 1.144 0 01-.033-.103c-.252-.85-.524-1.774-.759-2.56a53.962 53.962 0 01-.083-.28c-.01-.036-.013-.04-.019-.04-.003 0-.008.005-.01.013a38.422 38.422 0 00-.099.365c-.226.856-.433 1.591-.65 2.406a5.098 5.098 0 01-.036.136c-.015.056-.019.065-.031.07a50.32 50.32 0 01-1.618-.003z" fill="#8d0ef1"/></svg>