<?xml version="1.0" encoding="UTF-8" standalone="no"?>
<svg
   xmlns:dc="http://purl.org/dc/elements/1.1/"
   xmlns:cc="http://creativecommons.org/ns#"
   xmlns:rdf="http://www.w3.org/1999/02/22-rdf-syntax-ns#"
   xmlns:svg="http://www.w3.org/2000/svg"
   xmlns="http://www.w3.org/2000/svg"
   xmlns:sodipodi="http://sodipodi.sourceforge.net/DTD/sodipodi-0.dtd"
   xmlns:inkscape="http://www.inkscape.org/namespaces/inkscape"
   width="40"
   height="40"
   viewBox="0 0 40 40"
   fill="none"
   version="1.1"
   id="svg958"
   sodipodi:docname="computation-services.svg"
   inkscape:version="0.92.4 (5da689c313, 2019-01-14)">
  <metadata
     id="metadata964">
    <rdf:RDF>
      <cc:Work
         rdf:about="">
        <dc:format>image/svg+xml</dc:format>
        <dc:type
           rdf:resource="http://purl.org/dc/dcmitype/StillImage" />
      </cc:Work>
    </rdf:RDF>
  </metadata>
  <defs
     id="defs962" />
  <sodipodi:namedview
     pagecolor="#ffffff"
     bordercolor="#666666"
     borderopacity="1"
     objecttolerance="10"
     gridtolerance="10"
     guidetolerance="10"
     inkscape:pageopacity="0"
     inkscape:pageshadow="2"
     inkscape:window-width="3840"
     inkscape:window-height="2035"
     id="namedview960"
     showgrid="false"
     inkscape:zoom="10.8"
     inkscape:cx="-25.414439"
     inkscape:cy="29.042004"
     inkscape:window-x="-13"
     inkscape:window-y="-13"
     inkscape:window-maximized="1"
     inkscape:current-layer="svg958" />
  <circle
     opacity="0.8"
     cx="20"
     cy="20"
     r="20"
     fill="#AAB5D5"
     id="circle944" />
  <path
     d="M20 40C31.0457 40 40 31.0457 40 20C40 8.95431 31.0457 0 20 0C8.95431 0 0 8.95431 0 20C0 31.0457 8.95431 40 20 40Z"
     fill="#AAB5D5"
     id="path946"
     style="fill:#8d0ef1;fill-opacity:1" />
  <path
     d="M20 35C28.2843 35 35 28.2843 35 20C35 11.7157 28.2843 5 20 5C11.7157 5 5 11.7157 5 20C5 28.2843 11.7157 35 20 35Z"
     fill="#F1F3F9"
     id="path948"
     style="fill:#fffff0;fill-opacity:0.69803923" />
  <path
     fill-rule="evenodd"
     clip-rule="evenodd"
     d="M18.1241 12C19.0078 12 19.7241 12.7163 19.7241 13.6V18.1241C19.7241 19.0078 19.0078 19.7241 18.1241 19.7241H13.6C12.7163 19.7241 12 19.0078 12 18.1241V13.6C12 12.7163 12.7163 12 13.6 12H18.1241ZM15.8621 13.6552C15.5575 13.6552 15.3103 13.9023 15.3103 14.2069V15.3103H14.2069C13.9023 15.3103 13.6552 15.5575 13.6552 15.8621C13.6552 16.1666 13.9023 16.4138 14.2069 16.4138H15.3103V17.5172C15.3103 17.8218 15.5575 18.069 15.8621 18.069C16.1666 18.069 16.4138 17.8218 16.4138 17.5172V16.4138H17.5172C17.8218 16.4138 18.069 16.1666 18.069 15.8621C18.069 15.5575 17.8218 15.3103 17.5172 15.3103H16.4138V14.2069C16.4138 13.9023 16.1666 13.6552 15.8621 13.6552Z"
     fill="#AAB5D5"
     id="path950"
     style="fill:#8d0ef1;fill-opacity:1" />
  <path
     fill-rule="evenodd"
     clip-rule="evenodd"
     d="M26.4 12C27.2837 12 28 12.7163 28 13.6V18.1241C28 19.0078 27.2837 19.7241 26.4 19.7241H21.8759C20.9922 19.7241 20.2759 19.0078 20.2759 18.1241V13.6C20.2759 12.7163 20.9922 12 21.8759 12H26.4ZM25.7931 15.3103H22.4828C22.1782 15.3103 21.9311 15.5575 21.9311 15.8621C21.9311 16.1666 22.1782 16.4138 22.4828 16.4138H25.7931C26.0977 16.4138 26.3448 16.1666 26.3448 15.8621C26.3448 15.5575 26.0977 15.3103 25.7931 15.3103Z"
     fill="#AAB5D5"
     id="path952"
     style="fill:#8d0ef1;fill-opacity:1" />
  <path
     fill-rule="evenodd"
     clip-rule="evenodd"
     d="M26.4 20.2759C27.2837 20.2759 28 20.9922 28 21.8759V26.4C28 27.2837 27.2837 28 26.4 28H21.8759C20.9922 28 20.2759 27.2837 20.2759 26.4V21.8759C20.2759 20.9922 20.9922 20.2759 21.8759 20.2759H26.4ZM25.7931 24.4138H22.4828C22.1782 24.4138 21.9311 24.661 21.9311 24.9655C21.9311 25.2701 22.1782 25.5172 22.4828 25.5172H25.7931C26.0977 25.5172 26.3448 25.2701 26.3448 24.9655C26.3448 24.661 26.0977 24.4138 25.7931 24.4138ZM25.7931 22.7586H22.4828C22.1782 22.7586 21.9311 23.0058 21.9311 23.3103C21.9311 23.5895 22.1387 23.8205 22.4079 23.857L22.4828 23.8621H25.7931C26.0977 23.8621 26.3448 23.6149 26.3448 23.3103C26.3448 23.0058 26.0977 22.7586 25.7931 22.7586Z"
     fill="#AAB5D5"
     id="path954"
     style="fill:#8d0ef1;fill-opacity:1" />
  <path
     fill-rule="evenodd"
     clip-rule="evenodd"
     d="M18.1241 20.2759C19.0078 20.2759 19.7241 20.9922 19.7241 21.8759V26.4C19.7241 27.2837 19.0078 28 18.1241 28H13.6C12.7163 28 12 27.2837 12 26.4V21.8759C12 20.9922 12.7163 20.2759 13.6 20.2759H18.1241ZM17.6314 22.3686C17.4163 22.1531 17.0665 22.1531 16.8513 22.3686L15.8621 23.3578L14.8728 22.3686C14.6577 22.1531 14.3079 22.1531 14.0927 22.3686C13.8772 22.584 13.8772 22.9332 14.0927 23.1487L15.0819 24.1379L14.0927 25.1272C13.8772 25.3426 13.8772 25.6919 14.0927 25.9073C14.2003 26.0152 14.3415 26.069 14.4828 26.069C14.624 26.069 14.7652 26.0152 14.8728 25.9073L15.8621 24.9181L16.8513 25.9073C16.9589 26.0152 17.1001 26.069 17.2414 26.069C17.3826 26.069 17.5239 26.0152 17.6314 25.9073C17.8469 25.6919 17.8469 25.3426 17.6314 25.1272L16.6422 24.1379L17.6314 23.1487C17.8469 22.9332 17.8469 22.584 17.6314 22.3686Z"
     fill="#AAB5D5"
     id="path956"
     style="fill:#8d0ef1;fill-opacity:1" />
</svg>
