<svg width="40" height="40" viewBox="0 0 40 40" fill="#3A82FF" xmlns="http://www.w3.org/2000/svg">
  <path d="M20 40C25.3043 40 30.3914 37.8929 34.1421 34.1421C37.8929 30.3914 40 25.3043 40 20C40 14.6957 37.8929 9.60859 34.1421 5.85786C30.3914 2.10714 25.3043 0 20 0C14.6957 0 9.60859 2.10714 5.85786 5.85786C2.10714 9.60859 0 14.6957 0 20C0 25.3043 2.10714 30.3914 5.85786 34.1421C9.60859 37.8929 14.6957 40 20 40V40Z"/>
  <path d="M20 35C23.9782 35 27.7936 33.4196 30.6066 30.6066C33.4196 27.7936 35 23.9782 35 20C35 16.0218 33.4196 12.2064 30.6066 9.3934C27.7936 6.58035 23.9782 5 20 5C16.0218 5 12.2064 6.58035 9.3934 9.3934C6.58035 12.2064 5 16.0218 5 20C5 23.9782 6.58035 27.7936 9.3934 30.6066C12.2064 33.4196 16.0218 35 20 35V35Z" fill="white" fill-opacity="0.7"/>
  <path d="M17.16 10.2C17.0774 10.185 16.9927 10.185 16.91 10.2C16.9 10.22 16.87 10.23 16.84 10.23L16.79 10.24C16.79 10.24 16.76 10.27 16.72 10.28C16.6392 10.3261 16.5684 10.3879 16.5117 10.4617C16.4551 10.5356 16.4137 10.62 16.39 10.71C16.3472 11.0755 16.406 11.4457 16.56 11.78L16.61 11.9C16.793 12.2907 17.0141 12.6625 17.27 13.01L17.34 13.11C17.6102 13.4198 17.9081 13.7043 18.23 13.96C18.26 13.98 18.34 13.99 19.66 13.99H21.06L21.15 13.9C21.952 13.0811 22.5126 12.0569 22.77 10.94L22.79 10.61V10.39L22.72 10.33C22.6884 10.2925 22.6468 10.2648 22.6 10.25C22.2158 10.2103 21.8276 10.2512 21.46 10.37C21.43 10.37 21.39 10.37 21.39 10.39L21.32 10.4C21.28 10.4 21.25 10.41 21.25 10.42L21.18 10.44C21.14 10.44 21.11 10.44 21.11 10.46L21.03 10.48C20.88 10.5 20.83 10.51 20.83 10.53L20.76 10.54L20.7 10.56L20.64 10.58C20.61 10.58 20.58 10.58 20.58 10.6L20.51 10.62L20.45 10.63L20.38 10.65C20.35 10.65 20.32 10.65 20.31 10.67L20.25 10.69L20.19 10.7L20.12 10.72C20.1 10.72 20.07 10.72 20.06 10.74C20.06 10.74 20.03 10.76 19.99 10.76L19.92 10.77L19.86 10.79C19.83 10.79 19.8 10.79 19.8 10.81L19.71 10.83C19.67 10.83 19.63 10.83 19.61 10.85C19.5205 10.863 19.4296 10.863 19.34 10.85C19.04 10.85 18.91 10.83 18.88 10.81L18.83 10.79C18.8 10.79 18.78 10.79 18.78 10.77L18.72 10.76L18.67 10.74L18.62 10.72C18.4872 10.6654 18.3539 10.6121 18.22 10.56L18.13 10.53C18.1063 10.5174 18.0829 10.504 18.06 10.49C18.0417 10.4791 18.0212 10.4723 18 10.47L17.97 10.46L17.95 10.44C17.93 10.44 17.9 10.44 17.88 10.42L17.81 10.38C17.7907 10.3733 17.7705 10.3699 17.75 10.37L17.72 10.35C17.72 10.34 17.71 10.33 17.68 10.33C17.66 10.33 17.63 10.33 17.63 10.31L17.58 10.3L17.52 10.28L17.46 10.26L17.4 10.25C17.39 10.23 17.27 10.21 17.16 10.2V10.2ZM18.21 14.34L18.17 14.36L18.13 14.37L18.07 14.41L18.01 14.45L17.98 14.46L17.96 14.48L17.94 14.5C17.9043 14.5113 17.8706 14.5282 17.84 14.55C17.8095 14.5717 17.7758 14.5886 17.74 14.6L17.72 14.62L17.62 14.69C17.5862 14.7119 17.5558 14.7389 17.53 14.77L17.51 14.78C17.4086 14.8385 17.3146 14.909 17.23 14.99C17.21 14.99 17.16 15.03 17.1 15.09C17.0826 15.1068 17.0623 15.1204 17.04 15.13L17.01 15.16L16.88 15.28L16.68 15.45C16.2429 15.8733 15.8226 16.3136 15.42 16.77C15.2101 17.0128 15.0132 17.2664 14.83 17.53L14.74 17.66C14.7005 17.729 14.6571 17.7958 14.61 17.86L14.58 17.89C14.58 17.89 14.56 17.9 14.56 17.92C14.493 18.0086 14.4328 18.1022 14.38 18.2L14.18 18.5C13.91 18.97 13.66 19.43 13.48 19.82L13.41 20L13.37 20.1L13.31 20.23C13.28 20.2872 13.2565 20.3475 13.24 20.41L13.19 20.54L13.13 20.69L12.95 21.25L12.9 21.42L12.77 22.02L12.73 22.22C12.63 22.78 12.63 23.6 12.71 24.12C12.77 24.4 12.78 24.46 12.87 24.75C13.1485 25.6343 13.7383 26.3875 14.53 26.87L14.58 26.91L14.65 26.95C15.5267 27.474 16.5052 27.8047 17.52 27.92L17.76 27.95C18.2667 28.0265 18.7777 28.07 19.29 28.08C20.7147 28.1685 22.1447 28.0608 23.54 27.76C23.54 27.74 23.58 27.74 23.61 27.74L23.68 27.72L23.75 27.69L23.88 27.67L23.95 27.65L24 27.63C24.02 27.63 24.05 27.63 24.05 27.61L24.1 27.6C24.1217 27.6 24.1427 27.593 24.16 27.58L24.26 27.54C24.294 27.5322 24.3274 27.5222 24.36 27.51L24.44 27.47C24.48 27.47 24.54 27.44 24.59 27.42L24.71 27.37C24.9559 27.2547 25.1961 27.1279 25.43 26.99L25.88 26.69C26.2114 26.3959 26.5068 26.0636 26.76 25.7L26.81 25.61C27.0226 25.2363 27.1745 24.8313 27.26 24.41L27.27 24.34C27.29 24.32 27.29 24.28 27.33 23.9C27.3858 23.2925 27.335 22.68 27.18 22.09C27.1715 22.015 27.1548 21.9412 27.13 21.87C27.1099 21.8048 27.0965 21.7378 27.09 21.67C27.09 21.64 27.07 21.61 27.06 21.6L27.04 21.54L27.03 21.48L27.01 21.43C27.01 21.4 27.01 21.38 26.99 21.37L26.97 21.33L26.96 21.26C26.9444 21.2276 26.931 21.1942 26.92 21.16C26.9113 21.125 26.8978 21.0913 26.88 21.06L26.87 21.02C26.8613 20.985 26.8478 20.9514 26.83 20.92C26.8155 20.8882 26.8054 20.8545 26.8 20.82C26.7909 20.7914 26.7774 20.7644 26.76 20.74C26.745 20.7119 26.7348 20.6815 26.73 20.65C26.1598 19.3026 25.3802 18.0539 24.42 16.95C23.8955 16.4074 23.3518 15.8838 22.79 15.38C22.7302 15.3227 22.6667 15.2692 22.6 15.22L22.58 15.21C22.56 15.21 22.52 15.17 22.47 15.12C22.4246 15.0849 22.3779 15.0515 22.33 15.02L22.18 14.92L22.13 14.89C22.11 14.89 22.1 14.88 22.1 14.87L22.05 14.83C22.0327 14.821 22.016 14.811 22 14.8C21.9535 14.7673 21.9031 14.7404 21.85 14.72C21.83 14.72 21.82 14.7 21.82 14.69L21.79 14.68L21.77 14.66L21.74 14.64C21.73 14.64 21.71 14.64 21.71 14.62C21.71 14.62 21.7 14.6 21.68 14.6H21.64C21.64 14.58 21.54 14.53 21.44 14.47C21.41 14.47 21.4 14.45 21.4 14.44L21.36 14.43C21.34 14.43 21.33 14.42 21.33 14.41L21.29 14.39C21.27 14.39 21.26 14.39 21.26 14.37L21.22 14.36L21.18 14.34C20.1902 14.3155 19.1999 14.3155 18.21 14.34V14.34ZM12.04 16.02C11.38 16.02 11.17 16.02 11.14 16.04C11.01 16.11 10.94 16.24 10.93 16.44C10.9052 16.7076 10.8718 16.9744 10.83 17.24C10.82 17.31 10.82 17.32 10.73 17.34C10.6073 17.3714 10.487 17.4115 10.37 17.46L9.97003 17.64C9.75003 17.76 9.77003 17.75 9.72003 17.73C9.68416 17.7105 9.65061 17.687 9.62003 17.66C9.58846 17.6281 9.55508 17.598 9.52003 17.57C9.48538 17.545 9.45201 17.5183 9.42003 17.49C9.40262 17.4731 9.38229 17.4596 9.36003 17.45L9.30003 17.41C9.26878 17.3777 9.23536 17.3477 9.20003 17.32C9.1649 17.2956 9.13149 17.2689 9.10003 17.24C9.06925 17.2132 9.03573 17.1897 9.00003 17.17L8.95003 17.12H8.92003C8.90003 17.12 8.88003 17.1 8.88003 17.09C8.88003 17.09 8.82003 17.07 8.73003 17.07H8.58003L8.00003 17.65C7.67003 17.98 7.40003 18.25 7.38003 18.29C7.34675 18.362 7.33563 18.4423 7.3481 18.5206C7.36056 18.599 7.39604 18.6718 7.45003 18.73C7.47623 18.7612 7.49965 18.7947 7.52003 18.83L7.58003 18.89L7.63003 18.96L7.70003 19.06C7.72536 19.0848 7.74876 19.1116 7.77003 19.14L7.84003 19.23L7.91003 19.32L8.00003 19.42L8.03003 19.47C7.87908 19.7755 7.74554 20.0893 7.63003 20.41L7.59003 20.55L7.47003 20.56C7.20296 20.59 6.93627 20.6233 6.67003 20.66C6.52003 20.67 6.47003 20.69 6.40003 20.76C6.28003 20.86 6.28003 20.84 6.28003 21.76C6.28003 22.6 6.28003 22.6 6.32003 22.68L6.37003 22.76L6.43003 22.79C6.48003 22.84 6.62003 22.88 6.77003 22.89C6.95389 22.9048 7.13729 22.9248 7.32003 22.95C7.60003 22.98 7.58003 22.97 7.62003 23.12C7.6469 23.2233 7.68374 23.3238 7.73003 23.42L7.77003 23.52L7.84003 23.66L7.94003 23.88C8.03003 24.07 8.03003 24.08 7.94003 24.18L7.84003 24.29C7.82003 24.33 7.77003 24.38 7.74003 24.41C7.72387 24.4279 7.71039 24.4481 7.70003 24.47L7.64003 24.55C7.6163 24.5736 7.5961 24.6006 7.58003 24.63L7.54003 24.69C7.49003 24.73 7.44003 24.81 7.38003 24.89C7.35003 24.97 7.33003 25.15 7.36003 25.19L7.38003 25.23C7.39003 25.28 8.53003 26.41 8.60003 26.43C8.70003 26.49 8.90003 26.46 8.97003 26.39C8.99852 26.3648 9.02858 26.3414 9.06003 26.32C9.09188 26.2991 9.12198 26.2757 9.15003 26.25C9.17488 26.2246 9.20163 26.2012 9.23003 26.18C9.26528 26.1595 9.29874 26.1361 9.33003 26.11C9.35488 26.0846 9.38163 26.0612 9.41003 26.04C9.44191 26.0192 9.47201 25.9957 9.50003 25.97C9.52808 25.9442 9.55818 25.9208 9.59003 25.9C9.61431 25.8847 9.63768 25.868 9.66003 25.85C9.73003 25.77 9.73003 25.77 9.89003 25.85L10.22 26.01L10.46 26.11L10.56 26.14L10.8 26.21C10.82 26.23 10.84 26.32 10.88 26.65C10.94 27.25 10.95 27.29 11.02 27.38L11.13 27.48C11.2 27.52 11.22 27.52 12.05 27.52C12.79 27.52 12.9 27.52 12.95 27.5C13.02 27.46 13.08 27.4 13.08 27.37L13.1 27.35L13.12 27.32L13.13 27.27L13.16 27.14C13.2 26.61 13.2 26.62 13.17 26.57C13.16 26.54 13.14 26.52 13.13 26.52L13.12 26.49L13.08 26.44C13.0464 26.4028 13.0163 26.3626 12.99 26.32C12.901 26.2133 12.8207 26.0996 12.75 25.98L12.71 25.93C12.6952 25.8958 12.6785 25.8624 12.66 25.83C12.6029 25.7441 12.5528 25.6538 12.51 25.56C12.4675 25.4711 12.4275 25.3811 12.39 25.29L12.33 25.17C12.319 25.1446 12.3122 25.1176 12.31 25.09L12.29 25.04L12.27 25L12.26 24.93C12.2383 24.8451 12.2116 24.7617 12.18 24.68L12.15 24.62L12 24.61C11.7486 24.5792 11.4985 24.5391 11.25 24.49C11.2176 24.4744 11.1842 24.461 11.15 24.45C11.0817 24.4317 11.0148 24.4083 10.95 24.38C10.3694 24.1296 9.88525 23.6981 9.57003 23.15C9.54724 23.1201 9.53028 23.0861 9.52003 23.05L9.50003 23.02C9.49003 23.02 9.48003 23.02 9.48003 23C9.45998 22.9261 9.42968 22.8554 9.39003 22.79C9.38183 22.7676 9.37842 22.7437 9.38003 22.72L9.36003 22.68L9.34003 22.63C9.34003 22.6 9.34003 22.58 9.32003 22.57L9.31003 22.51L9.29003 22.45L9.26003 22.35L9.23003 22.15C9.19234 21.7472 9.22619 21.3409 9.33003 20.95L9.34003 20.9L9.36003 20.84L9.38003 20.8L9.41003 20.7L9.52003 20.47L9.61003 20.31L9.62003 20.28C9.62003 20.26 9.63003 20.25 9.64003 20.25C9.65003 20.25 9.66003 20.25 9.66003 20.23L9.69003 20.17C9.9274 19.8555 10.2145 19.5819 10.54 19.36L10.67 19.28L10.88 19.18C11.0229 19.1083 11.174 19.0546 11.33 19.02L11.43 18.99L11.61 18.96C11.94 18.9398 12.2711 18.9465 12.6 18.98L12.68 19C12.72 19 12.75 19 12.76 19.02L12.82 19.04L12.88 19.05L12.93 19.07C12.96 19.07 12.98 19.07 12.99 19.09C13 19.12 13.09 19.11 13.12 19.07C13.1462 19.0352 13.1697 18.9984 13.19 18.96L13.24 18.86L13.37 18.63L13.42 18.53L13.51 18.38L13.58 18.28C13.594 18.2586 13.6042 18.2349 13.61 18.21L13.67 18.12C13.6892 18.095 13.706 18.0682 13.72 18.04L13.77 17.94C13.7909 17.9125 13.8078 17.8822 13.82 17.85L13.84 17.83L13.9 17.75C13.9137 17.7152 13.9305 17.6818 13.95 17.65L13.97 17.62C13.98 17.59 13.93 17.53 13.9 17.53C13.869 17.5234 13.8388 17.5133 13.81 17.5C13.7789 17.4817 13.7452 17.4682 13.71 17.46L13.67 17.45L13.62 17.43L13.57 17.41L13.52 17.39C13.49 17.39 13.47 17.39 13.46 17.37L13.41 17.36L13.36 17.34L13.3 17.32C13.26 17.32 13.26 17.34 13.22 16.97L13.19 16.67C13.1676 16.537 13.1476 16.4037 13.13 16.27L13.12 16.23C13.12 16.19 13.04 16.09 12.97 16.05C12.9 16.02 12.87 16.02 12.04 16.02V16.02ZM28.84 16.03C28.84 16.01 27.09 16.01 27.04 16.03C26.99 16.07 26.89 16.17 26.89 16.2L26.87 16.24C26.85 16.26 26.84 16.37 26.82 16.58L26.8 16.73L26.78 16.87C26.78 16.95 26.78 17.01 26.76 17.01L26.74 17.14L26.73 17.29C26.6921 17.3277 26.643 17.3522 26.59 17.36C26.4489 17.3924 26.3115 17.4393 26.18 17.5C26.16 17.5 26.14 17.5 26.14 17.52C26.14 17.52 26.14 17.54 26.12 17.54C26.0854 17.5451 26.0517 17.5552 26.02 17.57C25.9888 17.588 25.9551 17.6015 25.92 17.61L25.9 17.62L25.86 17.64C25.82 17.64 25.82 17.69 25.86 17.74L25.91 17.82L25.95 17.87C25.997 17.9572 26.0505 18.0408 26.11 18.12C26.1696 18.1991 26.2231 18.2827 26.27 18.37C26.27 18.37 26.29 18.37 26.29 18.39L26.32 18.45C26.3405 18.4777 26.3573 18.5079 26.37 18.54L26.41 18.59L26.43 18.62L26.44 18.65L26.48 18.71L26.51 18.77L26.55 18.83L26.58 18.89L26.7 19.1C26.72 19.15 26.78 19.19 26.8 19.16L26.84 19.14C26.86 19.14 26.89 19.14 26.89 19.12L26.96 19.11C26.99 19.11 27.01 19.1 27.01 19.09C27.01 19.08 27.03 19.07 27.06 19.07C27.09 19.07 27.12 19.07 27.13 19.05L27.19 19.04L27.25 19.02L27.32 19C27.36 19 27.4 19 27.41 18.98C27.44 18.96 27.6 18.94 27.95 18.94C28.2528 18.9134 28.5575 18.9579 28.84 19.07C28.86 19.07 28.88 19.07 28.89 19.09L28.94 19.11L29 19.12L29.04 19.14C29.06 19.14 29.07 19.14 29.07 19.16L29.1 19.18C29.12 19.18 29.27 19.24 29.29 19.26L29.38 19.32C29.703 19.4967 29.983 19.7425 30.2 20.04C30.2187 20.0618 30.2354 20.0852 30.25 20.11L30.3 20.16L30.31 20.19C30.31 20.21 30.31 20.22 30.33 20.22C30.33 20.22 30.35 20.22 30.35 20.24V20.27C30.37 20.27 30.39 20.32 30.42 20.37L30.47 20.47L30.52 20.58C30.52 20.59 30.52 20.61 30.54 20.61C30.54 20.61 30.56 20.61 30.56 20.63L30.57 20.69L30.61 20.77L30.65 20.86L30.66 20.93C30.66 20.96 30.67 20.98 30.68 20.98C30.69 20.98 30.7 21 30.7 21.04C30.7 21.07 30.7 21.1 30.72 21.11L30.73 21.19L30.75 21.27C30.8175 21.7384 30.7834 22.2159 30.65 22.67C30.6 22.77 30.59 22.77 30.59 22.81C30.59 22.83 30.59 22.85 30.57 22.85L30.56 22.87C30.5138 22.9964 30.4534 23.1172 30.38 23.23C30.38 23.24 30.38 23.25 30.36 23.25L30.35 23.28C30.35 23.3 30.18 23.52 30.09 23.62L29.92 23.82L29.89 23.85C29.8509 23.873 29.814 23.8998 29.78 23.93C29.6815 24.0203 29.5743 24.1006 29.46 24.17L29.23 24.29C29.0083 24.3945 28.7773 24.4782 28.54 24.54C28.51 24.54 28.47 24.54 28.46 24.56L28.34 24.58L28.22 24.59L28.04 24.62H27.88V24.67L27.86 24.74L27.84 24.82C27.84 24.85 27.84 24.88 27.82 24.89L27.8 24.95L27.79 25.01L27.77 25.06L27.75 25.12L27.73 25.17C27.73 25.19 27.73 25.21 27.71 25.21L27.7 25.25L27.68 25.31L27.65 25.39L27.59 25.51C27.5755 25.5418 27.5654 25.5754 27.56 25.61L27.54 25.64C27.53 25.64 27.52 25.64 27.52 25.66L27.43 25.85C27.3982 25.8935 27.3714 25.9405 27.35 25.99C27.35 26.01 27.33 26.02 27.32 26.02L27.31 26.04C27.31 26.07 27.17 26.28 27.15 26.29L27.13 26.31L27.1 26.36C27.0741 26.3878 27.0506 26.4179 27.03 26.45L26.9 26.6L26.8 26.68L26.81 26.87L26.83 27.07L26.85 27.18C26.85 27.23 26.85 27.28 26.87 27.28L26.89 27.33C26.89 27.37 26.95 27.44 27.03 27.49C27.09 27.52 27.12 27.52 27.94 27.52C28.59 27.52 28.8 27.52 28.84 27.5C28.91 27.46 29.02 27.34 29.02 27.29C29.02 27.26 29.02 27.24 29.04 27.23L29.06 27.09L29.07 26.95C29.08 26.95 29.09 26.88 29.09 26.8L29.11 26.65L29.13 26.49C29.15 26.23 29.16 26.22 29.34 26.17C29.4291 26.1432 29.516 26.1098 29.6 26.07C29.75 26.02 29.91 25.94 30.08 25.86L30.23 25.78L30.3 25.82L30.38 25.88L30.47 25.95C30.5261 25.9898 30.5796 26.0332 30.63 26.08L30.72 26.15L30.8 26.22L30.9 26.3L30.96 26.34L31 26.37C31.1 26.46 31.27 26.49 31.4 26.44C31.46 26.41 32.56 25.34 32.6 25.25C32.6102 25.2313 32.617 25.211 32.62 25.19C32.62 25.17 32.63 25.16 32.64 25.16C32.65 25.16 32.66 25.12 32.66 25.07L32.64 24.97L32.62 24.92L32.61 24.88C32.6 24.88 32.59 24.87 32.59 24.85L32.57 24.82C32.57 24.82 32.54 24.8 32.53 24.77C32.5103 24.7343 32.4868 24.7008 32.46 24.67C32.4276 24.6389 32.3975 24.6055 32.37 24.57C32.3486 24.5417 32.3252 24.515 32.3 24.49C32.2743 24.4619 32.2509 24.4318 32.23 24.4C32.2092 24.3681 32.1858 24.338 32.16 24.31C32.1343 24.2819 32.1109 24.2518 32.09 24.22C32.062 24.1849 32.032 24.1515 32 24.12C31.96 24.07 31.96 24.06 31.98 24.02C31.98 24 32 23.98 32.01 23.98L32.02 23.94C32.02 23.92 32.02 23.91 32.04 23.91L32.07 23.85L32.13 23.72C32.1441 23.6915 32.1542 23.6612 32.16 23.63L32.18 23.61L32.2 23.57C32.2 23.55 32.2 23.53 32.22 23.53L32.23 23.47L32.25 23.43L32.27 23.39C32.27 23.36 32.27 23.34 32.32 23.26C32.333 23.2317 32.3398 23.201 32.34 23.17C32.34 23.15 32.34 23.13 32.36 23.13L32.38 23.07C32.38 22.99 32.45 22.97 32.66 22.95C32.9243 22.9249 33.1878 22.8916 33.45 22.85C33.52 22.85 33.68 22.7 33.68 22.65L33.7 22.61C33.72 22.6 33.72 20.97 33.7 20.93L33.66 20.84C33.61 20.74 33.52 20.68 33.31 20.66L33.05 20.62L32.55 20.56C32.4 20.55 32.38 20.53 32.38 20.46L32.36 20.4L32.34 20.34C32.34 20.31 32.34 20.29 32.32 20.28L32.3 20.22L32.29 20.18C32.28 20.18 32.27 20.17 32.27 20.15C32.27 20.13 32.27 20.11 32.25 20.1L32.23 20.05L32.22 20.01L32.2 19.98C32.1921 19.9478 32.1786 19.9174 32.16 19.89C32.1448 19.862 32.1346 19.8315 32.13 19.8C32.13 19.79 32.13 19.78 32.11 19.78L32.09 19.74C32.09 19.72 32.09 19.7 32.07 19.7L32.06 19.65C32.06 19.63 32.05 19.62 32.04 19.62L32.02 19.58C32.02 19.56 32.02 19.55 32 19.55V19.5C32 19.48 31.99 19.47 31.98 19.47C31.96 19.47 32.04 19.36 32.14 19.25C32.1675 19.2235 32.1911 19.1932 32.21 19.16L32.28 19.07C32.3076 19.0436 32.3312 19.0132 32.35 18.98L32.39 18.93C32.44 18.87 32.49 18.82 32.49 18.8L32.54 18.74L32.6 18.66C32.6 18.65 32.6 18.64 32.62 18.64L32.63 18.59L32.65 18.54L32.67 18.45L32.65 18.36L32.63 18.32C32.628 18.291 32.6176 18.2632 32.6 18.24C32.2249 17.8518 31.8415 17.4717 31.45 17.1C31.41 17.07 31.38 17.07 31.28 17.07C31.2212 17.0658 31.1622 17.0743 31.1069 17.095C31.0517 17.1157 31.0016 17.1481 30.96 17.19L30.9 17.22L30.82 17.29C30.8005 17.314 30.7767 17.3343 30.75 17.35C30.74 17.35 30.69 17.38 30.65 17.43C30.6196 17.4601 30.5861 17.4869 30.55 17.51L30.46 17.58L30.33 17.68L30.29 17.72C30.29 17.75 30.23 17.73 30.07 17.65C30.0062 17.6139 29.9393 17.5838 29.87 17.56C29.86 17.56 29.84 17.56 29.84 17.54L29.82 17.53L29.76 17.51L29.68 17.47C29.6496 17.4577 29.6196 17.4443 29.59 17.43C29.5708 17.4231 29.5505 17.4197 29.53 17.42L29.49 17.4C29.49 17.4 29.47 17.38 29.44 17.38C29.41 17.38 29.39 17.38 29.39 17.36L29.34 17.35C29.32 17.35 29.28 17.35 29.27 17.33C29.2505 17.3218 29.2305 17.3152 29.21 17.31C29.17 17.3 29.16 17.23 29.14 17.05C29.1401 16.9927 29.1334 16.9356 29.12 16.88L29.09 16.71C29.096 16.5478 29.0757 16.3857 29.03 16.23L29.02 16.18C29.01 16.18 28.99 16.16 28.98 16.13C28.9647 16.0998 28.9402 16.0753 28.91 16.06C28.88 16.05 28.86 16.03 28.86 16.02L28.84 16.03ZM19.72 16.75H20.44V17.68C20.74 17.72 21.02 17.8 21.26 17.91C21.5 18.03 21.7 18.17 21.85 18.33C22.1288 18.6157 22.3167 18.9776 22.39 19.37L21.37 19.69C21.3099 19.4663 21.1967 19.2605 21.04 19.09C20.8792 18.9031 20.6671 18.7675 20.43 18.7V20.72L20.6 20.75C21.21 20.88 21.68 21.12 22 21.47C22.33 21.82 22.5 22.26 22.5 22.77C22.5 23.01 22.45 23.24 22.36 23.47C22.1597 23.9467 21.7889 24.3318 21.32 24.55C21.05 24.68 20.76 24.76 20.44 24.8V25.69H19.72V24.79C19.4021 24.7621 19.0911 24.6809 18.8 24.55C18.3167 24.3222 17.9278 23.9333 17.7 23.45C17.59 23.24 17.53 23.01 17.5 22.77L18.56 22.48C18.63 22.83 18.76 23.12 18.96 23.35C19.16 23.57 19.42 23.72 19.73 23.79V21.7L19.48 21.64C18.92 21.53 18.48 21.3 18.18 20.96C17.9196 20.6629 17.76 20.2909 17.7241 19.8975C17.6882 19.504 17.7778 19.1093 17.98 18.77C18.1698 18.4686 18.4245 18.2134 18.7255 18.023C19.0266 17.8327 19.3664 17.7121 19.72 17.67V16.74V16.75ZM19.73 18.67C19.47 18.73 19.25 18.85 19.08 19.04C18.9208 19.2032 18.8312 19.4219 18.83 19.65C18.83 19.85 18.91 20.05 19.07 20.23C19.23 20.41 19.44 20.53 19.71 20.58H19.73V18.68V18.67ZM20.43 21.85V23.79C20.7 23.74 20.93 23.63 21.11 23.46C21.1942 23.3805 21.2608 23.2843 21.3056 23.1775C21.3504 23.0707 21.3723 22.9557 21.37 22.84C21.3725 22.7227 21.3507 22.6062 21.3059 22.4978C21.2612 22.3894 21.1945 22.2914 21.11 22.21C20.94 22.04 20.71 21.92 20.43 21.85V21.85Z"/>
</svg>
