<svg width="40" height="40" viewBox="0 0 40 40" fill="#FFB845" xmlns="http://www.w3.org/2000/svg">
  <path d="M20 40C31.046 40 40 31.046 40 20C40 8.954 31.046 0 20 0C8.954 0 0 8.954 0 20C0 31.046 8.954 40 20 40Z"/>
  <path d="M20 35C28.284 35 35 28.284 35 20C35 11.716 28.284 5 20 5C11.716 5 5 11.716 5 20C5 28.284 11.716 35 20 35Z" fill="white" fill-opacity="0.7"/>
  <path d="M20 6.98303C19.309 6.98304 18.6462 7.25756 18.1576 7.74619C17.669 8.23482 17.3944 8.89755 17.3944 9.58858C17.3952 10.125 17.5614 10.6481 17.8705 11.0865C18.1796 11.5248 18.6164 11.8572 19.1214 12.038V16.1888C18.6966 16.2858 18.291 16.453 17.9213 16.6835L14.7603 13.5227C14.9253 13.1755 15.0114 12.7961 15.0125 12.4117C15.0125 11.7207 14.738 11.058 14.2494 10.5693C13.7607 10.0807 13.098 9.80618 12.407 9.80617C11.7159 9.80617 11.0532 10.0807 10.5646 10.5693C10.076 11.058 9.80144 11.7207 9.80143 12.4117C9.80142 12.7539 9.86881 13.0927 9.99974 13.4088C10.1307 13.725 10.3226 14.0122 10.5645 14.2542C10.8065 14.4961 11.0937 14.6881 11.4099 14.819C11.726 14.95 12.0648 15.0174 12.407 15.0174C12.7914 15.0164 13.1709 14.9304 13.5181 14.7655L16.682 17.9292C16.4524 18.2965 16.2853 18.6994 16.1876 19.1215H12.0388C11.8579 18.6163 11.5255 18.1794 11.0869 17.8702C10.6484 17.5611 10.1251 17.3949 9.58851 17.3944C9.24634 17.3944 8.90752 17.4618 8.59139 17.5927C8.27526 17.7237 7.98803 17.9156 7.74608 18.1576C7.50413 18.3995 7.31221 18.6868 7.18128 19.0029C7.05034 19.319 6.98296 19.6579 6.98297 20C6.98298 20.6911 7.25749 21.3538 7.74613 21.8424C8.23476 22.3311 8.89748 22.6056 9.58851 22.6056C10.1249 22.6049 10.6481 22.4387 11.0865 22.1296C11.5249 21.8205 11.8572 21.3836 12.0381 20.8786H16.1887C16.2847 21.2978 16.449 21.6984 16.6751 22.0642L13.5052 25.2339C13.1581 25.069 12.7787 24.9828 12.3943 24.9817C12.0522 24.9817 11.7134 25.0492 11.3972 25.1801C11.0811 25.3111 10.7939 25.503 10.5519 25.7449C10.31 25.9869 10.118 26.2742 9.98711 26.5903C9.85618 26.9064 9.78879 27.2452 9.78881 27.5874C9.78881 28.2785 10.0633 28.9412 10.552 29.4298C11.0406 29.9184 11.7033 30.193 12.3943 30.193C13.0854 30.193 13.7481 29.9184 14.2367 29.4298C14.7254 28.9412 14.9999 28.2785 14.9999 27.5874C14.9989 27.203 14.9129 26.8235 14.748 26.4762L17.9149 23.3093C18.286 23.5434 18.6939 23.7134 19.1214 23.8123V27.9611C18.6163 28.142 18.1794 28.4745 17.8703 28.913C17.5612 29.3516 17.395 29.8748 17.3944 30.4114C17.3944 30.7536 17.4618 31.0924 17.5927 31.4085C17.7237 31.7246 17.9156 32.0119 18.1575 32.2539C18.3995 32.4958 18.6867 32.6878 19.0029 32.8187C19.319 32.9497 19.6578 33.0171 20 33.0171C20.3422 33.0171 20.681 32.9497 20.9971 32.8187C21.3132 32.6877 21.6005 32.4958 21.8424 32.2539C22.0844 32.0119 22.2763 31.7246 22.4072 31.4085C22.5382 31.0924 22.6055 30.7536 22.6055 30.4114C22.6048 29.875 22.4386 29.3519 22.1295 28.9135C21.8204 28.4751 21.3835 28.1428 20.8786 27.9619V23.8112C21.3011 23.7146 21.7046 23.5486 22.0728 23.3199L25.2292 26.4763C25.0642 26.8234 24.9781 27.2028 24.977 27.5872C24.977 28.2782 25.2515 28.9409 25.7402 29.4295C26.2288 29.9182 26.8915 30.1927 27.5826 30.1927C27.9247 30.1927 28.2636 30.1253 28.5797 29.9944C28.8958 29.8635 29.1831 29.6715 29.425 29.4296C29.667 29.1876 29.8589 28.9004 29.9899 28.5843C30.1208 28.2681 30.1882 27.9293 30.1882 27.5872C30.1882 27.245 30.1208 26.9062 29.9899 26.59C29.8589 26.2739 29.667 25.9867 29.425 25.7447C29.1831 25.5028 28.8958 25.3108 28.5797 25.1799C28.2636 25.049 27.9247 24.9816 27.5826 24.9816C27.1981 24.9826 26.8187 25.0686 26.4714 25.2335L23.3144 22.0765C23.5458 21.7077 23.714 21.3028 23.8122 20.8786H27.9612C28.1421 21.3837 28.4745 21.8207 28.9131 22.1298C29.3516 22.4389 29.8749 22.605 30.4115 22.6056C31.1025 22.6056 31.7652 22.3311 32.2538 21.8424C32.7425 21.3538 33.017 20.6911 33.017 20C33.017 19.6579 32.9496 19.319 32.8187 19.0029C32.6878 18.6868 32.4958 18.3995 32.2539 18.1576C32.0119 17.9156 31.7247 17.7237 31.4086 17.5927C31.0925 17.4618 30.7536 17.3944 30.4115 17.3944C29.875 17.3951 29.3519 17.5613 28.9135 17.8704C28.475 18.1795 28.1427 18.6164 27.9619 19.1215H23.8112C23.713 18.6898 23.5422 18.2779 23.3062 17.9033L26.4629 14.7464C26.8101 14.9114 27.1895 14.9975 27.5739 14.9986C28.2649 14.9986 28.9277 14.7241 29.4163 14.2354C29.9049 13.7468 30.1794 13.0841 30.1795 12.393C30.1794 11.702 29.9049 11.0393 29.4163 10.5506C28.9277 10.062 28.2649 9.7875 27.5739 9.78749C27.2317 9.78748 26.8929 9.85486 26.5768 9.9858C26.2606 10.1167 25.9734 10.3087 25.7314 10.5506C25.4895 10.7925 25.2975 11.0798 25.1666 11.3959C25.0356 11.712 24.9682 12.0509 24.9682 12.393C24.9692 12.7775 25.0552 13.157 25.2201 13.5043L22.0533 16.6712C21.6906 16.4472 21.2938 16.2838 20.8786 16.1877V12.0389C21.3837 11.8579 21.8206 11.5255 22.1297 11.0869C22.4388 10.6484 22.605 10.1251 22.6055 9.58858C22.6055 8.89755 22.331 8.23482 21.8424 7.74619C21.3537 7.25756 20.691 6.98304 20 6.98303V6.98303ZM20 8.14276C20.3834 8.14277 20.7512 8.2951 21.0223 8.56624C21.2935 8.83739 21.4458 9.20513 21.4458 9.58858C21.4458 9.97203 21.2935 10.3398 21.0223 10.6109C20.7512 10.882 20.3834 11.0344 20 11.0344C19.6165 11.0344 19.2488 10.882 18.9777 10.6109C18.7065 10.3398 18.5542 9.97203 18.5542 9.58858C18.5542 9.20513 18.7065 8.83738 18.9777 8.56624C19.2488 8.2951 19.6165 8.14277 20 8.14276V8.14276ZM27.5739 10.9472C27.9574 10.9472 28.3251 11.0996 28.5962 11.3707C28.8674 11.6418 29.0197 12.0096 29.0197 12.393C29.0197 12.7765 28.8674 13.1442 28.5962 13.4154C28.3251 13.6865 27.9574 13.8388 27.5739 13.8389C27.384 13.8389 27.196 13.8015 27.0206 13.7288C26.8452 13.6562 26.6858 13.5497 26.5515 13.4154C26.4172 13.2812 26.3107 13.1218 26.238 12.9464C26.1654 12.7709 26.128 12.5829 26.128 12.393C26.128 12.2032 26.1654 12.0151 26.238 11.8397C26.3107 11.6643 26.4172 11.5049 26.5515 11.3707C26.6858 11.2364 26.8452 11.1299 27.0206 11.0572C27.196 10.9846 27.384 10.9472 27.5739 10.9472ZM12.407 10.9659C12.7904 10.9659 13.1582 11.1183 13.4293 11.3894C13.7004 11.6605 13.8528 12.0283 13.8528 12.4117C13.8528 12.6016 13.8154 12.7896 13.7428 12.965C13.6701 13.1405 13.5636 13.2999 13.4294 13.4341C13.2951 13.5684 13.1357 13.6749 12.9603 13.7476C12.7849 13.8203 12.5969 13.8577 12.407 13.8577C12.2171 13.8577 12.0291 13.8203 11.8536 13.7476C11.6782 13.675 11.5188 13.5685 11.3845 13.4342C11.2502 13.2999 11.1437 13.1405 11.0711 12.9651C10.9984 12.7896 10.961 12.6016 10.961 12.4117C10.961 12.2218 10.9984 12.0338 11.0711 11.8584C11.1438 11.683 11.2503 11.5236 11.3846 11.3893C11.5188 11.2551 11.6782 11.1486 11.8537 11.0759C12.0291 11.0033 12.2171 10.9659 12.407 10.9659V10.9659ZM20 17.2587C20.36 17.2588 20.7164 17.3297 21.049 17.4674C21.3816 17.6052 21.6838 17.8071 21.9383 18.0617C22.1929 18.3162 22.3948 18.6184 22.5325 18.951C22.6703 19.2836 22.7412 19.6401 22.7412 20.0001C22.7412 20.7271 22.4523 21.4243 21.9383 21.9384C21.4242 22.4524 20.727 22.7412 20 22.7412C19.273 22.7412 18.5758 22.4524 18.0617 21.9384C17.5476 21.4243 17.2588 20.7271 17.2588 20.0001C17.2588 19.6401 17.3297 19.2836 17.4674 18.951C17.6052 18.6184 17.8071 18.3162 18.0616 18.0617C18.3162 17.8071 18.6184 17.6052 18.951 17.4674C19.2835 17.3297 19.64 17.2588 20 17.2587V17.2587ZM9.58851 18.5541C9.77839 18.5541 9.96641 18.5915 10.1418 18.6642C10.3172 18.7369 10.4766 18.8434 10.6109 18.9776C10.7452 19.1119 10.8516 19.2713 10.9243 19.4467C10.997 19.6222 11.0343 19.8102 11.0343 20.0001C11.0343 20.3835 10.882 20.7513 10.6108 21.0224C10.3397 21.2935 9.97196 21.4459 9.58851 21.4459C9.20506 21.4459 8.83732 21.2935 8.56618 21.0224C8.29504 20.7513 8.14271 20.3835 8.1427 20.0001C8.14269 19.8102 8.18008 19.6222 8.25273 19.4467C8.32538 19.2713 8.43188 19.1119 8.56613 18.9776C8.70039 18.8434 8.85978 18.7369 9.0352 18.6642C9.21062 18.5915 9.39864 18.5541 9.58851 18.5541ZM30.4115 18.5541C30.6013 18.5541 30.7893 18.5915 30.9648 18.6642C31.1402 18.7369 31.2996 18.8434 31.4338 18.9776C31.5681 19.1119 31.6746 19.2713 31.7472 19.4467C31.8199 19.6222 31.8573 19.8102 31.8573 20.0001C31.8573 20.3835 31.7049 20.7513 31.4338 21.0224C31.1626 21.2935 30.7949 21.4459 30.4115 21.4459C30.2216 21.4459 30.0336 21.4085 29.8581 21.3358C29.6827 21.2632 29.5233 21.1567 29.389 21.0224C29.2548 20.8882 29.1483 20.7288 29.0756 20.5534C29.0029 20.378 28.9655 20.1899 28.9655 20.0001C28.9655 19.8102 29.0029 19.6221 29.0755 19.4467C29.1482 19.2713 29.2547 19.1119 29.389 18.9776C29.5233 18.8433 29.6827 18.7368 29.8581 18.6642C30.0335 18.5915 30.2216 18.5541 30.4115 18.5541ZM27.5826 26.1413C27.7724 26.1413 27.9605 26.1787 28.1359 26.2514C28.3113 26.324 28.4707 26.4305 28.605 26.5648C28.7392 26.699 28.8458 26.8584 28.9184 27.0339C28.9911 27.2093 29.0285 27.3973 29.0285 27.5872C29.0285 27.777 28.9911 27.9651 28.9184 28.1405C28.8458 28.3159 28.7392 28.4753 28.605 28.6095C28.4707 28.7438 28.3113 28.8503 28.1359 28.923C27.9605 28.9956 27.7724 29.033 27.5826 29.033C27.1991 29.033 26.8314 28.8806 26.5602 28.6095C26.2891 28.3384 26.1368 27.9706 26.1367 27.5872C26.1368 27.2037 26.2891 26.836 26.5602 26.5648C26.8314 26.2937 27.1991 26.1414 27.5826 26.1413V26.1413ZM12.3943 26.1415C12.5842 26.1415 12.7722 26.1789 12.9477 26.2516C13.1231 26.3242 13.2825 26.4307 13.4167 26.565C13.551 26.6993 13.6575 26.8587 13.7301 27.0341C13.8028 27.2095 13.8402 27.3976 13.8402 27.5874C13.8402 27.9709 13.6878 28.3386 13.4167 28.6098C13.1455 28.8809 12.7778 29.0332 12.3943 29.0333C12.2045 29.0333 12.0165 28.9959 11.841 28.9232C11.6656 28.8506 11.5062 28.7441 11.3719 28.6098C11.2377 28.4756 11.1311 28.3162 11.0585 28.1408C10.9858 27.9653 10.9484 27.7773 10.9484 27.5874C10.9484 27.3976 10.9858 27.2095 11.0584 27.0341C11.1311 26.8586 11.2376 26.6992 11.3719 26.565C11.5062 26.4307 11.6656 26.3242 11.841 26.2515C12.0164 26.1789 12.2045 26.1415 12.3943 26.1415V26.1415ZM20 28.9656C20.3834 28.9656 20.7512 29.1179 21.0223 29.3891C21.2935 29.6602 21.4458 30.0279 21.4458 30.4114C21.4458 30.6013 21.4084 30.7893 21.3358 30.9647C21.2631 31.1401 21.1566 31.2995 21.0224 31.4338C20.8881 31.5681 20.7287 31.6746 20.5533 31.7473C20.3779 31.8199 20.1899 31.8573 20 31.8573C19.8101 31.8573 19.6221 31.8199 19.4467 31.7473C19.2713 31.6746 19.1119 31.5681 18.9776 31.4338C18.8433 31.2995 18.7369 31.1401 18.6642 30.9647C18.5915 30.7893 18.5542 30.6013 18.5542 30.4114C18.5542 30.0279 18.7065 29.6602 18.9777 29.3891C19.2488 29.1179 19.6165 28.9656 20 28.9656V28.9656Z"/>
</svg>
