<svg xmlns="http://www.w3.org/2000/svg" width="40" height="40" fill="none">
  <circle opacity=".8" cx="20" cy="20" r="20" fill="#AAB5D5"/>
  <path d="M20 40c11.046 0 20-8.954 20-20S31.046 0 20 0 0 8.954 0 20s8.954 20 20 20z" fill="#8d0ef1"/>
  <path d="M20 35c8.284 0 15-6.716 15-15 0-8.284-6.716-15-15-15-8.284 0-15 6.716-15 15 0 8.284 6.716 15 15 15z" fill="ivory" fill-opacity=".698"/>
  <path fill-rule="evenodd" clip-rule="evenodd" d="M18.124 12a1.6 1.6 0 011.6 1.6v4.524a1.6 1.6 0 01-1.6 1.6H13.6a1.6 1.6 0 01-1.6-1.6V13.6a1.6 1.6 0 011.6-1.6h4.524zm-2.262 1.655a.552.552 0 00-.552.552v1.103h-1.103a.552.552 0 000 1.104h1.103v1.103a.552.552 0 001.104 0v-1.103h1.103a.552.552 0 000-1.104h-1.103v-1.103a.552.552 0 00-.552-.552zM26.4 12a1.6 1.6 0 011.6 1.6v4.524a1.6 1.6 0 01-1.6 1.6h-4.524a1.6 1.6 0 01-1.6-1.6V13.6a1.6 1.6 0 011.6-1.6H26.4zm-.607 3.31h-3.31a.552.552 0 000 1.104h3.31a.552.552 0 000-1.104zM26.4 20.276a1.6 1.6 0 011.6 1.6V26.4a1.6 1.6 0 01-1.6 1.6h-4.524a1.6 1.6 0 01-1.6-1.6v-4.524a1.6 1.6 0 011.6-1.6H26.4zm-.607 4.138h-3.31a.552.552 0 000 1.103h3.31a.552.552 0 000-1.103zm0-1.655h-3.31a.552.552 0 00-.075 1.098l.075.005h3.31a.552.552 0 000-1.103zM18.124 20.276a1.6 1.6 0 011.6 1.6V26.4a1.6 1.6 0 01-1.6 1.6H13.6a1.6 1.6 0 01-1.6-1.6v-4.524a1.6 1.6 0 011.6-1.6h4.524zm-.493 2.093a.551.551 0 00-.78 0l-.989.989-.99-.99a.551.551 0 10-.78.78l.99.99-.99.99a.551.551 0 10.78.78l.99-.99.99.99a.549.549 0 00.78 0 .551.551 0 000-.78l-.99-.99.99-.99a.551.551 0 000-.78z" fill="#8d0ef1"/>
</svg>