<svg xmlns="http://www.w3.org/2000/svg" width="40" height="40" fill="none">
  <circle opacity=".8" cx="20" cy="20" r="20" fill="#AAB5D5"/>
  <path d="M20 40c11.046 0 20-8.954 20-20S31.046 0 20 0 0 8.954 0 20s8.954 20 20 20z" fill="#2bcea1"/>
  <path d="M20 35c8.284 0 15-6.716 15-15 0-8.284-6.716-15-15-15-8.284 0-15 6.716-15 15 0 8.284 6.716 15 15 15z" fill="ivory" fill-opacity=".698"/>
  <path d="M20.189 30.354c-.544-.103-1.228-.283-2.72-.715a799.164 799.164 0 01-3.296-.96c-.971-.286-1.796-.507-1.834-.493-.045.017-.068.102-.068.249 0 .277-.097.471-.276.553-.202.093-1.414.126-1.568.044-.232-.125-1.076-1.668-1.484-2.711-.53-1.358-.843-2.73-1-4.39-.046-.492-.046-.631.001-.66.033-.02.621-.052 1.307-.07 1.987-.05 2.447-.047 2.592.02.173.08.282.32.282.623 0 .135.02.257.044.272.025.015.588.008 1.251-.016 2.791-.1 3.968.1 5.712.973.368.184.827.387 1.02.452.58.194 2.079.381 3.534.442.858.036 1.042.08 1.282.304.43.404.43 1.219 0 1.622-.294.275-.394.291-2.132.338-4.383.119-4.186.11-4.295.208-.056.05-.1.122-.1.159 0 .139.146.345.277.39.126.043 4.72-.041 5.503-.101.457-.035.827-.19 1.143-.48.252-.23.385-.292 2.004-.944 2.895-1.166 3.478-1.38 3.845-1.41.252-.022.366-.009.504.056.373.178.489.655.248 1.024-.162.248-.192.27-1.113.774l-2.43 1.337a2197.834 2197.834 0 01-4.323 2.378c-.871.48-1.285.65-1.82.752-.535.101-1.495.092-2.09-.02zm7.967-9.962v-3.645l-.112-.107c-.062-.06-.7-.556-1.42-1.103a527.347 527.347 0 01-3.52-2.695c-1.224-.945-1.23-.949-1.393-.949-.18 0-.217.027-2.019 1.417a685.3 685.3 0 01-2.917 2.237c-.768.585-1.428 1.112-1.465 1.17-.055.087-.068.44-.068 1.856 0 .962-.001 1.919-.004 2.126l-.004.378-.668-.013-.668-.014-.012-1.579c-.007-.868-.022-1.605-.034-1.637-.017-.044-.077-.04-.248.018-.483.165-1.095-.058-1.314-.48-.037-.071-.068-.257-.068-.412 0-.472-.066-.403 1.77-1.822.425-.328.818-.659.874-.734.095-.13.102-.215.125-1.62l.024-1.482.115-.093c.125-.102.156-.104 1.29-.102.962.003.97.008.988.646.006.25.024.507.038.57.026.111.029.112.158.027.072-.047.841-.633 1.71-1.303.869-.669 1.697-1.277 1.841-1.35.378-.195.724-.188 1.12.022.163.087.836.574 1.495 1.081 3.442 2.652 5.38 4.142 6.093 4.688 1.002.765 1.153.902 1.262 1.142a.725.725 0 01-.001.68c-.229.494-.805.724-1.338.535-.105-.038-.209-.058-.23-.044-.022.013-.04 1.31-.04 2.882v2.858l-.636.248c-.35.137-.655.249-.68.249-.026 0-.044-1.473-.044-3.646zm-8.235-.65c-.114-.114-.12-.15-.12-.647 0-.345.02-.547.057-.585.068-.067 1.19-.083 1.292-.018.046.03.058.203.048.692l-.013.652-.572.013c-.552.014-.575.01-.692-.107zm2.289.041c-.016-.042-.03-.336-.03-.654 0-.52.01-.582.094-.627.1-.054 1.109-.07 1.238-.021.064.024.077.124.077.598 0 .533-.007.577-.112.675-.102.096-.164.106-.675.106-.468 0-.567-.013-.592-.077zm-2.376-2.189c-.019-.018-.034-.269-.034-.557 0-.483.01-.534.117-.66.111-.129.143-.137.585-.153.258-.01.522-.003.589.013l.12.03-.013.667-.013.667-.659.014c-.362.007-.674-.002-.692-.02zm2.377-.044c-.057-.148-.034-1.213.028-1.275.089-.09.978-.077 1.158.015.18.094.2.177.182.801l-.014.51-.662.014c-.572.011-.667.002-.692-.065z" fill="#2bcea1"/>
</svg>