<svg width="40" height="40" viewBox="0 0 40 40" fill="#8D0EF1" xmlns="http://www.w3.org/2000/svg">
  <path d="M20 40C31.0457 40 40 31.0457 40 20C40 8.95431 31.0457 0 20 0C8.95431 0 0 8.95431 0 20C0 31.0457 8.95431 40 20 40Z"/>
  <path d="M20 35C28.2843 35 35 28.2843 35 20C35 11.7157 28.2843 5 20 5C11.7157 5 5 11.7157 5 20C5 28.2843 11.7157 35 20 35Z" fill="white" fill-opacity="0.701961"/>
  <path d="M13.775 24.766V20.5043H12.269C12.0035 20.5043 11.7883 20.7194 11.7883 20.9849V27.714C11.7883 27.9795 12.0035 28.1947 12.269 28.1947H18.9981C19.2636 28.1947 19.4788 27.9795 19.4788 27.714V26.208H15.217C14.4219 26.208 13.775 25.5611 13.775 24.766Z"/>
  <path d="M27.7139 11.7883H15.217C14.9515 11.7883 14.7363 12.0035 14.7363 12.269V24.7659C14.7363 25.0314 14.9515 25.2466 15.217 25.2466H27.7139C27.9794 25.2466 28.1946 25.0314 28.1946 24.7659V12.269C28.1946 12.0035 27.9794 11.7883 27.7139 11.7883ZM25.8162 16.716C25.8162 16.9814 25.601 17.1967 25.3355 17.1967C25.0699 17.1967 24.8549 16.9814 24.8549 16.716V15.7918L20.836 19.8106C20.7423 19.9044 20.6192 19.9514 20.4961 19.9514C20.3732 19.9514 20.2502 19.9044 20.1563 19.8106C19.9685 19.623 19.9685 19.3185 20.1563 19.1309L24.1978 15.0894H23.2254C22.96 15.0894 22.7448 14.8743 22.7448 14.6088C22.7448 14.3433 22.96 14.1281 23.2254 14.1281H25.3355C25.601 14.1281 25.8162 14.3433 25.8162 14.6088V16.716Z"/>
</svg>